<svg width="1645" height="256" viewBox="0 0 1645 256" fill="none" xmlns="http://www.w3.org/2000/svg">
<rect x="16" y="16" width="240" height="240" rx="60" fill="#FF90B1"/>
<rect width="240" height="240" rx="60" fill="#FF006A"/>
<path d="M118.677 88.4931C121.037 86.0401 124.963 86.0401 127.323 88.4931L178.175 141.34C181.843 145.152 179.142 151.5 173.852 151.5H72.1483C66.8583 151.5 64.1569 145.152 67.8248 141.34L118.677 88.4931Z" fill="white"/>
<path d="M387.889 218.818V83.8182H410.645V100.054H411.987C413.18 97.6676 414.864 95.1321 417.037 92.4474C419.21 89.7202 422.151 87.3977 425.858 85.4801C429.565 83.5199 434.295 82.5398 440.048 82.5398C447.634 82.5398 454.473 84.4787 460.567 88.3565C466.703 92.1918 471.561 97.8807 475.141 105.423C478.763 112.923 480.574 122.128 480.574 133.037C480.574 143.818 478.805 152.98 475.268 160.523C471.732 168.065 466.916 173.818 460.822 177.781C454.729 181.744 447.825 183.726 440.112 183.726C434.487 183.726 429.821 182.788 426.114 180.913C422.406 179.038 419.423 176.78 417.165 174.138C414.949 171.453 413.223 168.918 411.987 166.531H411.028V218.818H387.889ZM410.581 132.909C410.581 139.259 411.476 144.82 413.266 149.592C415.098 154.365 417.719 158.094 421.128 160.778C424.58 163.42 428.756 164.741 433.656 164.741C438.77 164.741 443.053 163.378 446.504 160.651C449.956 157.881 452.555 154.109 454.303 149.337C456.092 144.521 456.987 139.045 456.987 132.909C456.987 126.815 456.114 121.403 454.366 116.673C452.619 111.943 450.02 108.236 446.568 105.551C443.116 102.866 438.812 101.524 433.656 101.524C428.713 101.524 424.516 102.824 421.064 105.423C417.612 108.023 414.991 111.666 413.202 116.354C411.455 121.041 410.581 126.56 410.581 132.909ZM543.216 183.918C533.628 183.918 525.318 181.808 518.287 177.589C511.256 173.371 505.801 167.469 501.923 159.884C498.088 152.298 496.17 143.435 496.17 133.293C496.17 123.151 498.088 114.266 501.923 106.638C505.801 99.0099 511.256 93.0866 518.287 88.8679C525.318 84.6491 533.628 82.5398 543.216 82.5398C552.804 82.5398 561.114 84.6491 568.145 88.8679C575.176 93.0866 580.609 99.0099 584.445 106.638C588.322 114.266 590.261 123.151 590.261 133.293C590.261 143.435 588.322 152.298 584.445 159.884C580.609 167.469 575.176 173.371 568.145 177.589C561.114 181.808 552.804 183.918 543.216 183.918ZM543.344 165.381C548.543 165.381 552.889 163.953 556.384 161.098C559.878 158.2 562.477 154.322 564.182 149.464C565.929 144.607 566.803 139.195 566.803 133.229C566.803 127.22 565.929 121.787 564.182 116.929C562.477 112.028 559.878 108.129 556.384 105.232C552.889 102.334 548.543 100.885 543.344 100.885C538.017 100.885 533.585 102.334 530.048 105.232C526.554 108.129 523.933 112.028 522.186 116.929C520.482 121.787 519.629 127.22 519.629 133.229C519.629 139.195 520.482 144.607 522.186 149.464C523.933 154.322 526.554 158.2 530.048 161.098C533.585 163.953 538.017 165.381 543.344 165.381ZM609.901 182V83.8182H632.337V100.182H633.36C635.15 94.5142 638.218 90.1463 642.564 87.0781C646.953 83.9673 651.961 82.4119 657.586 82.4119C658.864 82.4119 660.292 82.4758 661.868 82.6037C663.488 82.6889 664.83 82.8381 665.895 83.0511V104.337C664.915 103.996 663.36 103.697 661.229 103.442C659.141 103.143 657.117 102.994 655.157 102.994C650.938 102.994 647.145 103.911 643.779 105.743C640.455 107.533 637.834 110.026 635.917 113.222C633.999 116.418 633.04 120.104 633.04 124.28V182H609.901ZM735.569 83.8182V101.716H679.127V83.8182H735.569ZM693.061 60.2955H716.201V152.469C716.201 155.58 716.669 157.966 717.607 159.628C718.587 161.247 719.865 162.355 721.442 162.952C723.019 163.548 724.766 163.847 726.684 163.847C728.132 163.847 729.453 163.74 730.647 163.527C731.882 163.314 732.82 163.122 733.459 162.952L737.358 181.041C736.123 181.467 734.354 181.936 732.053 182.447C729.794 182.959 727.025 183.257 723.743 183.342C717.948 183.513 712.728 182.639 708.083 180.722C703.438 178.761 699.752 175.736 697.025 171.645C694.34 167.554 693.019 162.44 693.061 156.304V60.2955ZM804.651 83.8182V101.716H746.611V83.8182H804.651ZM761.121 182V74.5497C761.121 67.9446 762.484 62.4474 765.212 58.0582C767.982 53.669 771.689 50.3878 776.334 48.2145C780.979 46.0412 786.135 44.9545 791.803 44.9545C795.808 44.9545 799.366 45.2741 802.477 45.9134C805.588 46.5526 807.889 47.1278 809.381 47.6392L804.778 65.5369C803.798 65.2386 802.562 64.9403 801.071 64.642C799.58 64.3011 797.918 64.1307 796.085 64.1307C791.781 64.1307 788.734 65.1747 786.945 67.2628C785.197 69.3082 784.324 72.2486 784.324 76.0838V182H761.121ZM861.907 183.918C852.319 183.918 844.01 181.808 836.978 177.589C829.947 173.371 824.493 167.469 820.615 159.884C816.779 152.298 814.862 143.435 814.862 133.293C814.862 123.151 816.779 114.266 820.615 106.638C824.493 99.0099 829.947 93.0866 836.978 88.8679C844.01 84.6491 852.319 82.5398 861.907 82.5398C871.495 82.5398 879.805 84.6491 886.836 88.8679C893.868 93.0866 899.301 99.0099 903.136 106.638C907.014 114.266 908.953 123.151 908.953 133.293C908.953 143.435 907.014 152.298 903.136 159.884C899.301 167.469 893.868 173.371 886.836 177.589C879.805 181.808 871.495 183.918 861.907 183.918ZM862.035 165.381C867.234 165.381 871.581 163.953 875.075 161.098C878.569 158.2 881.169 154.322 882.873 149.464C884.62 144.607 885.494 139.195 885.494 133.229C885.494 127.22 884.62 121.787 882.873 116.929C881.169 112.028 878.569 108.129 875.075 105.232C871.581 102.334 867.234 100.885 862.035 100.885C856.708 100.885 852.277 102.334 848.74 105.232C845.245 108.129 842.625 112.028 840.877 116.929C839.173 121.787 838.321 127.22 838.321 133.229C838.321 139.195 839.173 144.607 840.877 149.464C842.625 154.322 845.245 158.2 848.74 161.098C852.277 163.953 856.708 165.381 862.035 165.381ZM951.732 51.0909V182H928.592V51.0909H951.732ZM975.526 182V83.8182H998.665V182H975.526ZM987.159 69.8835C983.495 69.8835 980.341 68.669 977.699 66.2401C975.057 63.7685 973.736 60.8068 973.736 57.3551C973.736 53.8608 975.057 50.8991 977.699 48.4702C980.341 45.9986 983.495 44.7628 987.159 44.7628C990.867 44.7628 994.02 45.9986 996.62 48.4702C999.262 50.8991 1000.58 53.8608 1000.58 57.3551C1000.58 60.8068 999.262 63.7685 996.62 66.2401C994.02 68.669 990.867 69.8835 987.159 69.8835ZM1065.29 183.918C1055.7 183.918 1047.39 181.808 1040.36 177.589C1033.33 173.371 1027.87 167.469 1023.99 159.884C1020.16 152.298 1018.24 143.435 1018.24 133.293C1018.24 123.151 1020.16 114.266 1023.99 106.638C1027.87 99.0099 1033.33 93.0866 1040.36 88.8679C1047.39 84.6491 1055.7 82.5398 1065.29 82.5398C1074.87 82.5398 1083.18 84.6491 1090.22 88.8679C1097.25 93.0866 1102.68 99.0099 1106.51 106.638C1110.39 114.266 1112.33 123.151 1112.33 133.293C1112.33 143.435 1110.39 152.298 1106.51 159.884C1102.68 167.469 1097.25 173.371 1090.22 177.589C1083.18 181.808 1074.87 183.918 1065.29 183.918ZM1065.41 165.381C1070.61 165.381 1074.96 163.953 1078.45 161.098C1081.95 158.2 1084.55 154.322 1086.25 149.464C1088 144.607 1088.87 139.195 1088.87 133.229C1088.87 127.22 1088 121.787 1086.25 116.929C1084.55 112.028 1081.95 108.129 1078.45 105.232C1074.96 102.334 1070.61 100.885 1065.41 100.885C1060.09 100.885 1055.66 102.334 1052.12 105.232C1048.62 108.129 1046 112.028 1044.26 116.929C1042.55 121.787 1041.7 127.22 1041.7 133.229C1041.7 139.195 1042.55 144.607 1044.26 149.464C1046 154.322 1048.62 158.2 1052.12 161.098C1055.66 163.953 1060.09 165.381 1065.41 165.381ZM1195.88 53.875C1198.1 53.875 1199.66 54.3958 1200.57 55.4375C1201.55 56.4141 1202.04 58.1068 1202.04 60.5156V109.148C1206.27 102.833 1211.15 98.0156 1216.68 94.6953C1222.28 91.3099 1228.3 89.6172 1234.75 89.6172C1240.67 89.6172 1245.82 90.9193 1250.18 93.5234C1254.54 96.0625 1257.89 99.7409 1260.24 104.559C1262.58 109.376 1263.75 115.008 1263.75 121.453V168.719H1271.76C1273.98 168.719 1275.54 169.24 1276.45 170.281C1277.43 171.258 1277.91 172.951 1277.91 175.359C1277.91 177.768 1277.43 179.493 1276.45 180.535C1275.54 181.512 1273.98 182 1271.76 182H1240.12C1237.91 182 1236.31 181.512 1235.34 180.535C1234.42 179.493 1233.97 177.768 1233.97 175.359C1233.97 172.951 1234.42 171.258 1235.34 170.281C1236.31 169.24 1237.91 168.719 1240.12 168.719H1249.11V122.918C1249.11 117.124 1247.77 112.534 1245.1 109.148C1242.43 105.763 1238.49 104.07 1233.29 104.07C1227.75 104.07 1222.58 105.665 1217.76 108.855C1213.01 112.046 1209.2 116.44 1206.33 122.039C1203.47 127.638 1202.04 133.888 1202.04 140.789V168.719H1211.02C1213.23 168.719 1214.8 169.24 1215.71 170.281C1216.68 171.258 1217.17 172.951 1217.17 175.359C1217.17 177.768 1216.68 179.493 1215.71 180.535C1214.8 181.512 1213.23 182 1211.02 182H1179.38C1177.17 182 1175.57 181.512 1174.59 180.535C1173.68 179.493 1173.23 177.768 1173.23 175.359C1173.23 172.951 1173.68 171.258 1174.59 170.281C1175.57 169.24 1177.17 168.719 1179.38 168.719H1187.39V67.1562H1178.4C1176.19 67.1562 1174.59 66.668 1173.62 65.6914C1172.71 64.6497 1172.25 62.9245 1172.25 60.5156C1172.25 58.1068 1172.71 56.4141 1173.62 55.4375C1174.59 54.3958 1176.19 53.875 1178.4 53.875H1195.88ZM1376.06 91.7656C1378.27 91.7656 1379.83 92.2865 1380.75 93.3281C1381.72 94.3047 1382.21 95.9974 1382.21 98.4062V168.719H1390.22C1392.43 168.719 1393.99 169.24 1394.91 170.281C1395.88 171.258 1396.37 172.951 1396.37 175.359C1396.37 177.768 1395.88 179.493 1394.91 180.535C1393.99 181.512 1392.43 182 1390.22 182H1374.69C1372.48 182 1370.88 181.512 1369.91 180.535C1368.99 179.559 1368.54 177.866 1368.54 175.457V163.641C1364.24 170.281 1359.2 175.359 1353.4 178.875C1347.67 182.391 1341.49 184.148 1334.85 184.148C1328.92 184.148 1323.78 182.879 1319.42 180.34C1315.06 177.736 1311.7 174.025 1309.36 169.207C1307.02 164.389 1305.84 158.758 1305.84 152.312V105.047H1297.84C1295.62 105.047 1294.03 104.559 1293.05 103.582C1292.14 102.54 1291.68 100.815 1291.68 98.4062C1291.68 95.9974 1292.14 94.3047 1293.05 93.3281C1294.03 92.2865 1295.62 91.7656 1297.84 91.7656H1314.34C1316.55 91.7656 1318.12 92.2865 1319.03 93.3281C1320 94.3047 1320.49 95.9974 1320.49 98.4062V150.848C1320.49 156.642 1321.83 161.232 1324.5 164.617C1327.17 168.003 1331.1 169.695 1336.31 169.695C1341.85 169.695 1346.99 168.1 1351.74 164.91C1356.56 161.72 1360.4 157.326 1363.27 151.727C1366.13 146.128 1367.56 139.878 1367.56 132.977V105.047H1353.7C1351.48 105.047 1349.89 104.559 1348.91 103.582C1348 102.54 1347.54 100.815 1347.54 98.4062C1347.54 95.9974 1348 94.3047 1348.91 93.3281C1349.89 92.2865 1351.48 91.7656 1353.7 91.7656H1376.06ZM1475.57 89.6172C1481.49 89.6172 1486.64 90.9193 1491 93.5234C1495.36 96.0625 1498.71 99.7409 1501.06 104.559C1503.4 109.376 1504.57 115.008 1504.57 121.453V168.719H1512.58C1514.8 168.719 1516.36 169.24 1517.27 170.281C1518.25 171.258 1518.73 172.951 1518.73 175.359C1518.73 177.768 1518.25 179.493 1517.27 180.535C1516.36 181.512 1514.8 182 1512.58 182H1480.94C1478.73 182 1477.13 181.512 1476.16 180.535C1475.24 179.493 1474.79 177.768 1474.79 175.359C1474.79 172.951 1475.24 171.258 1476.16 170.281C1477.13 169.24 1478.73 168.719 1480.94 168.719H1489.93V122.918C1489.93 117.124 1488.59 112.534 1485.92 109.148C1483.25 105.763 1479.31 104.07 1474.11 104.07C1468.57 104.07 1463.4 105.665 1458.58 108.855C1453.83 112.046 1450.02 116.44 1447.15 122.039C1444.29 127.638 1442.86 133.888 1442.86 140.789V168.719H1451.84C1454.05 168.719 1455.62 169.24 1456.53 170.281C1457.5 171.258 1457.99 172.951 1457.99 175.359C1457.99 177.768 1457.5 179.493 1456.53 180.535C1455.62 181.512 1454.05 182 1451.84 182H1420.2C1417.99 182 1416.39 181.512 1415.41 180.535C1414.5 179.493 1414.05 177.768 1414.05 175.359C1414.05 172.951 1414.5 171.258 1415.41 170.281C1416.39 169.24 1417.99 168.719 1420.2 168.719H1428.21V105.047H1418.25C1416.03 105.047 1414.44 104.559 1413.46 103.582C1412.55 102.54 1412.09 100.815 1412.09 98.4062C1412.09 95.9974 1412.55 94.3047 1413.46 93.3281C1414.44 92.2865 1416.03 91.7656 1418.25 91.7656H1435.73C1437.94 91.7656 1439.5 92.2865 1440.41 93.3281C1441.39 94.3047 1441.88 95.9974 1441.88 98.4062V110.125C1446.18 103.484 1451.19 98.4062 1456.92 94.8906C1462.71 91.375 1468.93 89.6172 1475.57 89.6172ZM1569.22 63.9336C1571.89 63.9336 1573.78 64.4219 1574.89 65.3984C1575.99 66.375 1576.55 68.0026 1576.55 70.2812V99.5781H1616.68C1618.9 99.5781 1620.46 100.099 1621.37 101.141C1622.35 102.117 1622.84 103.81 1622.84 106.219C1622.84 108.628 1622.35 110.353 1621.37 111.395C1620.46 112.371 1618.9 112.859 1616.68 112.859H1576.55V148.406C1576.55 155.828 1577.82 161.264 1580.36 164.715C1582.96 168.165 1587.45 169.891 1593.83 169.891C1598.19 169.891 1602.78 169.012 1607.6 167.254C1612.42 165.496 1617.07 163.152 1621.57 160.223C1622.48 159.572 1623.49 159.246 1624.59 159.246C1626.81 159.246 1628.7 160.743 1630.26 163.738C1631.1 165.431 1631.53 166.896 1631.53 168.133C1631.53 170.216 1630.45 171.909 1628.3 173.211C1623.23 176.401 1617.56 179.038 1611.31 181.121C1605.06 183.139 1599.24 184.148 1593.83 184.148C1582.76 184.148 1574.66 181.284 1569.52 175.555C1564.44 169.76 1561.9 161.134 1561.9 149.676V112.859H1542.07C1539.86 112.859 1538.27 112.371 1537.29 111.395C1536.38 110.353 1535.92 108.628 1535.92 106.219C1535.92 103.81 1536.38 102.117 1537.29 101.141C1538.27 100.099 1539.86 99.5781 1542.07 99.5781H1561.9V70.2812C1561.9 68.0026 1562.45 66.375 1563.56 65.3984C1564.67 64.4219 1566.55 63.9336 1569.22 63.9336Z" fill="white"/>
</svg>
