<svg width="1211" height="421" viewBox="0 0 1211 421" fill="none" xmlns="http://www.w3.org/2000/svg">
<rect x="20" y="102" width="240" height="240" rx="60" fill="#FF90B1"/>
<rect y="82" width="240" height="240" rx="60" fill="#FF006A"/>
<path d="M118.677 170.493C121.037 168.04 124.963 168.04 127.323 170.493L178.175 223.34C181.843 227.152 179.142 233.5 173.852 233.5H72.1483C66.8583 233.5 64.1569 227.152 67.8248 223.34L118.677 170.493Z" fill="white"/>
<path d="M530.32 240.04C530.8 239.88 531.6 239.8 532.72 239.8C535.12 239.8 536.96 240.6 538.24 242.2C539.52 243.8 540.16 245.96 540.16 248.68C540.16 253.64 539.2 257.56 537.28 260.44C535.36 263.16 532.48 265.16 528.64 266.44C521.28 268.84 513.44 270.04 505.12 270.04C498.08 270.04 491.44 269.08 485.2 267.16C480.56 274.68 475.44 282.44 469.84 290.44C463.44 299.56 457.92 305.8 453.28 309.16C448.64 312.52 443.36 314.2 437.44 314.2C430.88 314.2 425.68 311.64 421.84 306.52C418.16 301.4 415.84 293.32 414.88 282.28C412.96 259.88 412 240.28 412 223.48V215.08C412.16 209.8 413.6 206.12 416.32 204.04C419.04 201.96 423.12 200.92 428.56 200.92C432.72 200.92 435.76 201.88 437.68 203.8C439.76 205.56 440.8 208.6 440.8 212.92C440.8 231.32 441.92 255.24 444.16 284.68C453.76 270.44 460.96 259.08 465.76 250.6C463.36 245.96 462.16 240.44 462.16 234.04C462.16 228.6 463.36 223.32 465.76 218.2C468.16 213.08 471.44 208.92 475.6 205.72C479.76 202.52 484.48 200.92 489.76 200.92C494.4 200.92 498.16 202.6 501.04 205.96C503.92 209.16 505.36 213.88 505.36 220.12C505.36 227.32 503.44 235.56 499.6 244.84C505.68 244.52 513.76 243.32 523.84 241.24L530.32 240.04ZM550.773 185.32C544.053 185.32 539.013 183.8 535.653 180.76C532.293 177.56 530.613 173.16 530.613 167.56C530.613 161.96 532.773 157.32 537.093 153.64C541.573 149.8 547.093 147.88 553.653 147.88C559.573 147.88 564.373 149.32 568.053 152.2C571.733 155.08 573.573 159.16 573.573 164.44C573.573 170.84 571.493 175.96 567.333 179.8C563.173 183.48 557.653 185.32 550.773 185.32ZM548.853 314.2C538.453 314.2 530.853 310.52 526.053 303.16C521.413 295.8 519.093 286.04 519.093 273.88C519.093 266.68 519.973 257.48 521.733 246.28C523.653 234.92 526.053 224.36 528.933 214.6C530.373 209.48 532.293 205.96 534.693 204.04C537.093 202.12 540.933 201.16 546.213 201.16C554.373 201.16 558.453 203.88 558.453 209.32C558.453 213.32 556.933 222.6 553.893 237.16C550.053 254.76 548.133 266.68 548.133 272.92C548.133 277.72 548.773 281.4 550.053 283.96C551.333 286.52 553.493 287.8 556.533 287.8C559.413 287.8 563.013 285.8 567.333 281.8C571.653 277.8 577.413 271.48 584.613 262.84C586.533 260.6 588.693 259.48 591.093 259.48C593.173 259.48 594.773 260.44 595.893 262.36C597.173 264.28 597.813 266.92 597.813 270.28C597.813 276.68 596.293 281.64 593.253 285.16C577.413 304.52 562.613 314.2 548.853 314.2ZM706.075 239.32C708.155 239.32 709.755 240.36 710.875 242.44C711.995 244.52 712.555 247.16 712.555 250.36C712.555 254.36 711.995 257.48 710.875 259.72C709.755 261.8 707.995 263.24 705.595 264.04C695.995 267.4 685.435 269.32 673.915 269.8C670.715 283.08 664.635 293.8 655.675 301.96C646.875 310.12 637.115 314.2 626.395 314.2C610.235 314.2 598.475 308.04 591.115 295.72C583.755 283.4 580.075 265.56 580.075 242.2C580.075 221.56 582.635 199.16 587.755 175C592.875 150.68 600.315 130.04 610.075 113.08C619.995 95.96 631.755 87.4 645.355 87.4C652.715 87.4 658.635 90.6 663.115 97C667.595 103.24 669.835 111.4 669.835 121.48C669.835 134.6 667.355 147.64 662.395 160.6C657.435 173.56 649.195 187.16 637.675 201.4C648.395 202.2 657.115 206.68 663.835 214.84C670.555 222.84 674.555 232.76 675.835 244.6C683.355 244.12 692.315 242.52 702.715 239.8C703.675 239.48 704.795 239.32 706.075 239.32ZM639.835 111.16C636.635 111.16 633.115 115.96 629.275 125.56C625.595 135 622.155 147.88 618.955 164.2C615.755 180.52 613.355 198.36 611.755 217.72C622.315 198.36 630.715 181.32 636.955 166.6C643.355 151.72 646.555 138.52 646.555 127C646.555 121.88 645.915 117.96 644.635 115.24C643.515 112.52 641.915 111.16 639.835 111.16ZM627.355 288.76C632.315 288.76 636.715 286.68 640.555 282.52C644.395 278.36 646.955 272.36 648.235 264.52C643.275 261.16 639.435 256.76 636.715 251.32C634.155 245.88 632.875 240.12 632.875 234.04C632.875 231.8 633.195 228.76 633.835 224.92H633.115C626.555 224.92 621.035 228.2 616.555 234.76C612.235 241.16 610.075 249.8 610.075 260.68C610.075 269.8 611.755 276.76 615.115 281.56C618.635 286.36 622.715 288.76 627.355 288.76ZM798.873 259.48C800.953 259.48 802.553 260.44 803.672 262.36C804.953 264.28 805.593 266.92 805.593 270.28C805.593 276.68 804.073 281.64 801.033 285.16C795.113 292.36 786.713 299 775.833 305.08C765.113 311.16 753.593 314.2 741.273 314.2C724.473 314.2 711.433 309.64 702.153 300.52C692.873 291.4 688.232 278.92 688.232 263.08C688.232 252.04 690.553 241.8 695.193 232.36C699.833 222.76 706.233 215.16 714.393 209.56C722.713 203.96 732.073 201.16 742.473 201.16C751.753 201.16 759.193 203.96 764.793 209.56C770.393 215 773.193 222.44 773.193 231.88C773.193 242.92 769.193 252.44 761.193 260.44C753.353 268.28 739.993 274.52 721.113 279.16C725.113 286.52 732.713 290.2 743.913 290.2C751.113 290.2 759.273 287.72 768.393 282.76C777.673 277.64 785.673 271 792.393 262.84C794.313 260.6 796.473 259.48 798.873 259.48ZM738.393 224.68C732.473 224.68 727.433 228.12 723.273 235C719.273 241.88 717.273 250.2 717.273 259.96V260.44C726.713 258.2 734.153 254.84 739.593 250.36C745.033 245.88 747.753 240.68 747.753 234.76C747.753 231.72 746.873 229.32 745.113 227.56C743.513 225.64 741.273 224.68 738.393 224.68ZM879.468 245.8C883.948 245.8 886.188 249.16 886.188 255.88C886.188 268.52 876.268 274.84 856.428 274.84C852.588 274.84 847.068 274.12 839.868 272.68C841.948 282.6 843.628 293.64 844.908 305.8C846.348 317.8 847.068 327.72 847.068 335.56C847.068 352.84 844.268 366.04 838.668 375.16C833.068 384.28 825.708 388.84 816.588 388.84C805.068 388.84 796.828 380.68 791.868 364.36C787.068 348.04 784.668 323.4 784.668 290.44C784.668 259.72 787.948 228.6 794.508 197.08C801.228 165.4 810.348 139.24 821.868 118.6C833.548 97.8 846.348 87.4 860.268 87.4C867.788 87.4 873.628 90.76 877.788 97.48C882.108 104.2 884.268 113.24 884.268 124.6C884.268 162.2 861.788 203.16 816.828 247.48C815.228 263.16 814.428 276.92 814.428 288.76C814.428 305.24 814.988 322.12 816.108 339.4C817.228 356.84 819.068 365.56 821.628 365.56C826.428 365.56 828.828 357.24 828.828 340.6C828.828 328.12 827.948 316.04 826.188 304.36C824.588 292.68 822.348 280.36 819.468 267.4C819.308 265.32 819.948 262.68 821.388 259.48C822.988 256.28 824.908 253.48 827.148 251.08C829.388 248.68 831.388 247.48 833.148 247.48C836.348 247.48 840.188 247.64 844.668 247.96C846.108 248.12 847.788 248.2 849.708 248.2C856.108 248.2 863.228 247.64 871.068 246.52C872.348 246.36 873.708 246.2 875.148 246.04C876.588 245.88 878.028 245.8 879.468 245.8ZM855.228 111.16C852.348 111.16 848.748 116.04 844.428 125.8C840.268 135.56 836.108 148.52 831.948 164.68C827.788 180.68 824.188 197.64 821.148 215.56C833.948 201 843.788 185.88 850.668 170.2C857.548 154.36 861.068 139.56 861.228 125.8C861.228 116.04 859.228 111.16 855.228 111.16ZM990.483 239.32C992.563 239.32 994.163 240.36 995.283 242.44C996.403 244.52 996.963 247.16 996.963 250.36C996.963 258.04 994.643 262.6 990.003 264.04C980.403 267.4 969.843 269.32 958.323 269.8C955.283 283.24 949.283 294.04 940.323 302.2C931.363 310.2 921.203 314.2 909.843 314.2C900.243 314.2 892.003 311.88 885.123 307.24C878.403 302.6 873.283 296.44 869.763 288.76C866.243 281.08 864.482 272.76 864.482 263.8C864.482 251.64 866.803 240.84 871.443 231.4C876.083 221.8 882.483 214.36 890.643 209.08C898.803 203.64 907.843 200.92 917.763 200.92C929.923 200.92 939.683 205.16 947.043 213.64C954.563 221.96 958.963 232.28 960.243 244.6C967.763 244.12 976.723 242.52 987.123 239.8C988.403 239.48 989.523 239.32 990.483 239.32ZM911.763 288.76C916.883 288.76 921.283 286.68 924.963 282.52C928.803 278.36 931.363 272.36 932.643 264.52C927.683 261.16 923.843 256.76 921.123 251.32C918.563 245.88 917.283 240.12 917.283 234.04C917.283 231.48 917.523 228.92 918.003 226.36H916.803C910.403 226.36 905.043 229.48 900.723 235.72C896.563 241.8 894.483 250.44 894.483 261.64C894.483 270.44 896.163 277.16 899.523 281.8C903.043 286.44 907.123 288.76 911.763 288.76ZM1067.32 259.48C1069.4 259.48 1071 260.44 1072.12 262.36C1073.4 264.28 1074.04 266.92 1074.04 270.28C1074.04 276.68 1072.52 281.64 1069.48 285.16C1062.6 293.64 1055.08 300.6 1046.92 306.04C1038.92 311.48 1029.8 314.2 1019.56 314.2C1005.48 314.2 995.004 307.8 988.124 295C981.404 282.2 978.044 265.64 978.044 245.32C978.044 225.8 980.524 203.56 985.484 178.6C990.604 153.64 998.044 132.2 1007.8 114.28C1017.72 96.36 1029.48 87.4 1043.08 87.4C1050.76 87.4 1056.76 91 1061.08 98.2C1065.56 105.24 1067.8 115.4 1067.8 128.68C1067.8 147.72 1062.52 169.8 1051.96 194.92C1041.4 220.04 1027.08 244.92 1009 269.56C1010.12 276.12 1011.96 280.84 1014.52 283.72C1017.08 286.44 1020.44 287.8 1024.6 287.8C1031.16 287.8 1036.92 285.96 1041.88 282.28C1046.84 278.44 1053.16 271.96 1060.84 262.84C1062.76 260.6 1064.92 259.48 1067.32 259.48ZM1037.8 111.16C1034.12 111.16 1029.96 117.8 1025.32 131.08C1020.68 144.36 1016.6 160.84 1013.08 180.52C1009.56 200.2 1007.64 219.08 1007.32 237.16C1018.68 218.44 1027.72 199.72 1034.44 181C1041.16 162.12 1044.52 144.92 1044.52 129.4C1044.52 117.24 1042.28 111.16 1037.8 111.16ZM1086.09 185.32C1079.37 185.32 1074.33 183.8 1070.97 180.76C1067.61 177.56 1065.93 173.16 1065.93 167.56C1065.93 161.96 1068.09 157.32 1072.41 153.64C1076.89 149.8 1082.41 147.88 1088.97 147.88C1094.89 147.88 1099.69 149.32 1103.37 152.2C1107.05 155.08 1108.89 159.16 1108.89 164.44C1108.89 170.84 1106.81 175.96 1102.65 179.8C1098.49 183.48 1092.97 185.32 1086.09 185.32ZM1084.17 314.2C1073.77 314.2 1066.17 310.52 1061.37 303.16C1056.73 295.8 1054.41 286.04 1054.41 273.88C1054.41 266.68 1055.29 257.48 1057.05 246.28C1058.97 234.92 1061.37 224.36 1064.25 214.6C1065.69 209.48 1067.61 205.96 1070.01 204.04C1072.41 202.12 1076.25 201.16 1081.53 201.16C1089.69 201.16 1093.77 203.88 1093.77 209.32C1093.77 213.32 1092.25 222.6 1089.21 237.16C1085.37 254.76 1083.45 266.68 1083.45 272.92C1083.45 277.72 1084.09 281.4 1085.37 283.96C1086.65 286.52 1088.81 287.8 1091.85 287.8C1094.73 287.8 1098.33 285.8 1102.65 281.8C1106.97 277.8 1112.73 271.48 1119.93 262.84C1121.85 260.6 1124.01 259.48 1126.41 259.48C1128.49 259.48 1130.09 260.44 1131.21 262.36C1132.49 264.28 1133.13 266.92 1133.13 270.28C1133.13 276.68 1131.61 281.64 1128.57 285.16C1112.73 304.52 1097.93 314.2 1084.17 314.2ZM1154.27 314.2C1144.83 314.2 1136.75 311.88 1130.03 307.24C1123.47 302.44 1118.51 296.2 1115.15 288.52C1111.79 280.84 1110.11 272.6 1110.11 263.8C1110.11 251.64 1112.35 240.84 1116.83 231.4C1121.47 221.8 1127.71 214.36 1135.55 209.08C1143.39 203.64 1152.19 200.92 1161.95 200.92C1171.39 200.92 1179.47 203.32 1186.19 208.12C1192.91 212.76 1197.95 218.92 1201.31 226.6C1204.67 234.28 1206.35 242.52 1206.35 251.32C1206.35 263.48 1204.03 274.36 1199.39 283.96C1194.75 293.4 1188.43 300.84 1180.43 306.28C1172.59 311.56 1163.87 314.2 1154.27 314.2ZM1156.91 288.28C1162.35 288.28 1166.91 285.32 1170.59 279.4C1174.43 273.48 1176.35 264.84 1176.35 253.48C1176.35 244.68 1174.75 238.04 1171.55 233.56C1168.35 229.08 1164.51 226.84 1160.03 226.84C1154.27 226.84 1149.47 229.8 1145.63 235.72C1141.95 241.48 1140.11 250.12 1140.11 261.64C1140.11 270.76 1141.71 277.48 1144.91 281.8C1148.11 286.12 1152.11 288.28 1156.91 288.28Z" fill="#1F3147"/>
</svg>
