<svg width="1348" height="260" viewBox="0 0 1348 260" fill="none" xmlns="http://www.w3.org/2000/svg">
<rect x="20" y="20" width="240" height="240" rx="60" fill="#FF90B1"/>
<rect width="240" height="240" rx="60" fill="#FF006A"/>
<path d="M118.677 88.4931C121.037 86.0401 124.963 86.0401 127.323 88.4931L178.175 141.34C181.843 145.152 179.142 151.5 173.852 151.5H72.1483C66.8583 151.5 64.1569 145.152 67.8248 141.34L118.677 88.4931Z" fill="white"/>
<path d="M416.86 197L383.2 100.88H406.06L430 173.96L453.94 100.88H476.8L443.14 197H416.86ZM533.61 197V100.88H554.85V197H533.61ZM496.89 197V179.72H586.17V197H496.89ZM498.69 118.16V100.88H551.79V118.16H498.69ZM532.71 88.1V67.94H554.31V88.1H532.71ZM654.859 199.16C648.139 199.16 642.259 197.6 637.219 194.48C632.299 191.24 628.519 187.1 625.879 182.06L625.339 197H605.179V69.2H626.419V114.38C628.819 110.06 632.479 106.4 637.399 103.4C642.439 100.28 648.259 98.72 654.859 98.72C662.899 98.72 669.859 100.76 675.739 104.84C681.619 108.8 686.119 114.56 689.239 122.12C692.479 129.56 694.099 138.5 694.099 148.94C694.099 159.38 692.479 168.38 689.239 175.94C686.119 183.38 681.619 189.14 675.739 193.22C669.859 197.18 662.899 199.16 654.859 199.16ZM649.819 180.08C656.899 180.08 662.359 177.38 666.199 171.98C670.039 166.46 671.959 158.78 671.959 148.94C671.959 139.1 670.039 131.48 666.199 126.08C662.359 120.56 657.019 117.8 650.179 117.8C645.259 117.8 640.999 119.06 637.399 121.58C633.919 123.98 631.219 127.52 629.299 132.2C627.379 136.76 626.419 142.34 626.419 148.94C626.419 155.42 627.379 161 629.299 165.68C631.339 170.24 634.099 173.78 637.579 176.3C641.059 178.82 645.139 180.08 649.819 180.08ZM754.689 199.16C745.689 199.16 737.769 197.12 730.929 193.04C724.209 188.96 718.989 183.14 715.269 175.58C711.549 168.02 709.689 159.14 709.689 148.94C709.689 138.86 711.549 130.1 715.269 122.66C718.989 115.1 724.149 109.22 730.749 105.02C737.469 100.82 745.329 98.72 754.329 98.72C762.969 98.72 770.589 100.76 777.189 104.84C783.909 108.92 789.129 114.74 792.849 122.3C796.689 129.86 798.609 138.86 798.609 149.3V154.88H731.649C732.249 163.04 734.589 169.28 738.669 173.6C742.869 177.92 748.329 180.08 755.049 180.08C760.209 180.08 764.469 178.88 767.829 176.48C771.309 173.96 773.709 170.72 775.029 166.76L796.809 168.38C793.809 177.98 788.709 185.54 781.509 191.06C774.309 196.46 765.369 199.16 754.689 199.16ZM731.829 139.4H775.569C774.969 132.08 772.749 126.68 768.909 123.2C765.069 119.6 760.149 117.8 754.149 117.8C748.149 117.8 743.169 119.66 739.209 123.38C735.369 126.98 732.909 132.32 731.829 139.4ZM845.879 197V95.48C845.879 86.96 848.039 80.48 852.359 76.04C856.799 71.48 863.519 69.2 872.519 69.2H903.119V82.52H872.519C868.799 82.52 865.919 83.72 863.879 86.12C861.959 88.4 860.999 91.52 860.999 95.48V197H845.879ZM820.319 114.92V101.6H901.319V114.92H820.319ZM969.648 199.16C960.888 199.16 953.208 197.12 946.608 193.04C940.128 188.96 935.088 183.2 931.488 175.76C927.888 168.2 926.088 159.38 926.088 149.3C926.088 139.1 927.888 130.28 931.488 122.84C935.088 115.4 940.128 109.64 946.608 105.56C953.208 101.48 960.888 99.44 969.648 99.44C978.408 99.44 986.028 101.48 992.508 105.56C999.108 109.64 1004.21 115.4 1007.81 122.84C1011.41 130.28 1013.21 139.1 1013.21 149.3C1013.21 159.38 1011.41 168.2 1007.81 175.76C1004.21 183.2 999.108 188.96 992.508 193.04C986.028 197.12 978.408 199.16 969.648 199.16ZM969.648 184.76C978.408 184.76 985.188 181.64 989.988 175.4C994.908 169.04 997.368 160.34 997.368 149.3C997.368 138.26 994.908 129.62 989.988 123.38C985.188 117.02 978.408 113.84 969.648 113.84C960.888 113.84 954.048 117.02 949.128 123.38C944.328 129.62 941.928 138.26 941.928 149.3C941.928 160.34 944.328 169.04 949.128 175.4C954.048 181.64 960.888 184.76 969.648 184.76ZM1072.72 197V94.76C1072.72 90.92 1071.64 87.92 1069.48 85.76C1067.32 83.6 1064.32 82.52 1060.48 82.52H1037.98V69.2H1061.2C1069.96 69.2 1076.56 71.48 1081 76.04C1085.56 80.48 1087.84 87.08 1087.84 95.84V197H1072.72ZM1034.38 197V183.68H1120.78V197H1034.38ZM1184.25 197V101.6H1199.37V197H1184.25ZM1145.91 197V183.68H1232.31V197H1145.91ZM1147.71 114.92V101.6H1199.37V114.92H1147.71ZM1182.81 86.66V69.02H1198.65V86.66H1182.81ZM1293.44 199.16C1284.68 199.16 1277 197.12 1270.4 193.04C1263.92 188.96 1258.88 183.2 1255.28 175.76C1251.68 168.2 1249.88 159.38 1249.88 149.3C1249.88 139.1 1251.68 130.28 1255.28 122.84C1258.88 115.4 1263.92 109.64 1270.4 105.56C1277 101.48 1284.68 99.44 1293.44 99.44C1302.2 99.44 1309.82 101.48 1316.3 105.56C1322.9 109.64 1328 115.4 1331.6 122.84C1335.2 130.28 1337 139.1 1337 149.3C1337 159.38 1335.2 168.2 1331.6 175.76C1328 183.2 1322.9 188.96 1316.3 193.04C1309.82 197.12 1302.2 199.16 1293.44 199.16ZM1293.44 184.76C1302.2 184.76 1308.98 181.64 1313.78 175.4C1318.7 169.04 1321.16 160.34 1321.16 149.3C1321.16 138.26 1318.7 129.62 1313.78 123.38C1308.98 117.02 1302.2 113.84 1293.44 113.84C1284.68 113.84 1277.84 117.02 1272.92 123.38C1268.12 129.62 1265.72 138.26 1265.72 149.3C1265.72 160.34 1268.12 169.04 1272.92 175.4C1277.84 181.64 1284.68 184.76 1293.44 184.76Z" fill="#1F3147"/>
</svg>
