<svg width="1661" height="272" viewBox="0 0 1661 272" fill="none" xmlns="http://www.w3.org/2000/svg">
<rect x="16" y="16" width="256" height="256" rx="60" fill="#FF90B1"/>
<rect width="256" height="256" rx="60" fill="#FF006A"/>
<path d="M123.593 88.7711C125.968 86.1995 130.032 86.1995 132.407 88.7711L187.979 148.929C191.528 152.772 188.803 159 183.571 159H72.4288C67.1972 159 64.4715 152.772 68.0214 148.929L123.593 88.7711Z" fill="white"/>
<path d="M403.889 223.818V88.8182H426.645V105.054H427.987C429.18 102.668 430.864 100.132 433.037 97.4474C435.21 94.7202 438.151 92.3977 441.858 90.4801C445.565 88.5199 450.295 87.5398 456.048 87.5398C463.634 87.5398 470.473 89.4787 476.567 93.3565C482.703 97.1918 487.561 102.881 491.141 110.423C494.763 117.923 496.574 127.128 496.574 138.037C496.574 148.818 494.805 157.98 491.268 165.523C487.732 173.065 482.916 178.818 476.822 182.781C470.729 186.744 463.825 188.726 456.112 188.726C450.487 188.726 445.821 187.788 442.114 185.913C438.406 184.038 435.423 181.78 433.165 179.138C430.949 176.453 429.223 173.918 427.987 171.531H427.028V223.818H403.889ZM426.581 137.909C426.581 144.259 427.476 149.82 429.266 154.592C431.098 159.365 433.719 163.094 437.128 165.778C440.58 168.42 444.756 169.741 449.656 169.741C454.77 169.741 459.053 168.378 462.504 165.651C465.956 162.881 468.555 159.109 470.303 154.337C472.092 149.521 472.987 144.045 472.987 137.909C472.987 131.815 472.114 126.403 470.366 121.673C468.619 116.943 466.02 113.236 462.568 110.551C459.116 107.866 454.812 106.524 449.656 106.524C444.713 106.524 440.516 107.824 437.064 110.423C433.612 113.023 430.991 116.666 429.202 121.354C427.455 126.041 426.581 131.56 426.581 137.909ZM559.216 188.918C549.628 188.918 541.318 186.808 534.287 182.589C527.256 178.371 521.801 172.469 517.923 164.884C514.088 157.298 512.17 148.435 512.17 138.293C512.17 128.151 514.088 119.266 517.923 111.638C521.801 104.01 527.256 98.0866 534.287 93.8679C541.318 89.6491 549.628 87.5398 559.216 87.5398C568.804 87.5398 577.114 89.6491 584.145 93.8679C591.176 98.0866 596.609 104.01 600.445 111.638C604.322 119.266 606.261 128.151 606.261 138.293C606.261 148.435 604.322 157.298 600.445 164.884C596.609 172.469 591.176 178.371 584.145 182.589C577.114 186.808 568.804 188.918 559.216 188.918ZM559.344 170.381C564.543 170.381 568.889 168.953 572.384 166.098C575.878 163.2 578.477 159.322 580.182 154.464C581.929 149.607 582.803 144.195 582.803 138.229C582.803 132.22 581.929 126.787 580.182 121.929C578.477 117.028 575.878 113.129 572.384 110.232C568.889 107.334 564.543 105.885 559.344 105.885C554.017 105.885 549.585 107.334 546.048 110.232C542.554 113.129 539.933 117.028 538.186 121.929C536.482 126.787 535.629 132.22 535.629 138.229C535.629 144.195 536.482 149.607 538.186 154.464C539.933 159.322 542.554 163.2 546.048 166.098C549.585 168.953 554.017 170.381 559.344 170.381ZM625.901 187V88.8182H648.337V105.182H649.36C651.15 99.5142 654.218 95.1463 658.564 92.0781C662.953 88.9673 667.961 87.4119 673.586 87.4119C674.864 87.4119 676.292 87.4758 677.868 87.6037C679.488 87.6889 680.83 87.8381 681.895 88.0511V109.337C680.915 108.996 679.36 108.697 677.229 108.442C675.141 108.143 673.117 107.994 671.157 107.994C666.938 107.994 663.145 108.911 659.779 110.743C656.455 112.533 653.834 115.026 651.917 118.222C649.999 121.418 649.04 125.104 649.04 129.28V187H625.901ZM751.569 88.8182V106.716H695.127V88.8182H751.569ZM709.061 65.2955H732.201V157.469C732.201 160.58 732.669 162.966 733.607 164.628C734.587 166.247 735.865 167.355 737.442 167.952C739.019 168.548 740.766 168.847 742.684 168.847C744.132 168.847 745.453 168.74 746.647 168.527C747.882 168.314 748.82 168.122 749.459 167.952L753.358 186.041C752.123 186.467 750.354 186.936 748.053 187.447C745.794 187.959 743.025 188.257 739.743 188.342C733.948 188.513 728.728 187.639 724.083 185.722C719.438 183.761 715.752 180.736 713.025 176.645C710.34 172.554 709.019 167.44 709.061 161.304V65.2955ZM820.651 88.8182V106.716H762.611V88.8182H820.651ZM777.121 187V79.5497C777.121 72.9446 778.484 67.4474 781.212 63.0582C783.982 58.669 787.689 55.3878 792.334 53.2145C796.979 51.0412 802.135 49.9545 807.803 49.9545C811.808 49.9545 815.366 50.2741 818.477 50.9134C821.588 51.5526 823.889 52.1278 825.381 52.6392L820.778 70.5369C819.798 70.2386 818.562 69.9403 817.071 69.642C815.58 69.3011 813.918 69.1307 812.085 69.1307C807.781 69.1307 804.734 70.1747 802.945 72.2628C801.197 74.3082 800.324 77.2486 800.324 81.0838V187H777.121ZM877.907 188.918C868.319 188.918 860.01 186.808 852.978 182.589C845.947 178.371 840.493 172.469 836.615 164.884C832.779 157.298 830.862 148.435 830.862 138.293C830.862 128.151 832.779 119.266 836.615 111.638C840.493 104.01 845.947 98.0866 852.978 93.8679C860.01 89.6491 868.319 87.5398 877.907 87.5398C887.495 87.5398 895.805 89.6491 902.836 93.8679C909.868 98.0866 915.301 104.01 919.136 111.638C923.014 119.266 924.953 128.151 924.953 138.293C924.953 148.435 923.014 157.298 919.136 164.884C915.301 172.469 909.868 178.371 902.836 182.589C895.805 186.808 887.495 188.918 877.907 188.918ZM878.035 170.381C883.234 170.381 887.581 168.953 891.075 166.098C894.569 163.2 897.169 159.322 898.873 154.464C900.62 149.607 901.494 144.195 901.494 138.229C901.494 132.22 900.62 126.787 898.873 121.929C897.169 117.028 894.569 113.129 891.075 110.232C887.581 107.334 883.234 105.885 878.035 105.885C872.708 105.885 868.277 107.334 864.74 110.232C861.245 113.129 858.625 117.028 856.877 121.929C855.173 126.787 854.321 132.22 854.321 138.229C854.321 144.195 855.173 149.607 856.877 154.464C858.625 159.322 861.245 163.2 864.74 166.098C868.277 168.953 872.708 170.381 878.035 170.381ZM967.732 56.0909V187H944.592V56.0909H967.732ZM991.526 187V88.8182H1014.67V187H991.526ZM1003.16 74.8835C999.495 74.8835 996.341 73.669 993.699 71.2401C991.057 68.7685 989.736 65.8068 989.736 62.3551C989.736 58.8608 991.057 55.8991 993.699 53.4702C996.341 50.9986 999.495 49.7628 1003.16 49.7628C1006.87 49.7628 1010.02 50.9986 1012.62 53.4702C1015.26 55.8991 1016.58 58.8608 1016.58 62.3551C1016.58 65.8068 1015.26 68.7685 1012.62 71.2401C1010.02 73.669 1006.87 74.8835 1003.16 74.8835ZM1081.29 188.918C1071.7 188.918 1063.39 186.808 1056.36 182.589C1049.33 178.371 1043.87 172.469 1039.99 164.884C1036.16 157.298 1034.24 148.435 1034.24 138.293C1034.24 128.151 1036.16 119.266 1039.99 111.638C1043.87 104.01 1049.33 98.0866 1056.36 93.8679C1063.39 89.6491 1071.7 87.5398 1081.29 87.5398C1090.87 87.5398 1099.18 89.6491 1106.22 93.8679C1113.25 98.0866 1118.68 104.01 1122.51 111.638C1126.39 119.266 1128.33 128.151 1128.33 138.293C1128.33 148.435 1126.39 157.298 1122.51 164.884C1118.68 172.469 1113.25 178.371 1106.22 182.589C1099.18 186.808 1090.87 188.918 1081.29 188.918ZM1081.41 170.381C1086.61 170.381 1090.96 168.953 1094.45 166.098C1097.95 163.2 1100.55 159.322 1102.25 154.464C1104 149.607 1104.87 144.195 1104.87 138.229C1104.87 132.22 1104 126.787 1102.25 121.929C1100.55 117.028 1097.95 113.129 1094.45 110.232C1090.96 107.334 1086.61 105.885 1081.41 105.885C1076.09 105.885 1071.66 107.334 1068.12 110.232C1064.62 113.129 1062 117.028 1060.26 121.929C1058.55 126.787 1057.7 132.22 1057.7 138.229C1057.7 144.195 1058.55 149.607 1060.26 154.464C1062 159.322 1064.62 163.2 1068.12 166.098C1071.66 168.953 1076.09 170.381 1081.41 170.381ZM1211.88 58.875C1214.1 58.875 1215.66 59.3958 1216.57 60.4375C1217.55 61.4141 1218.04 63.1068 1218.04 65.5156V114.148C1222.27 107.833 1227.15 103.016 1232.68 99.6953C1238.28 96.3099 1244.3 94.6172 1250.75 94.6172C1256.67 94.6172 1261.82 95.9193 1266.18 98.5234C1270.54 101.062 1273.89 104.741 1276.24 109.559C1278.58 114.376 1279.75 120.008 1279.75 126.453V173.719H1287.76C1289.98 173.719 1291.54 174.24 1292.45 175.281C1293.43 176.258 1293.91 177.951 1293.91 180.359C1293.91 182.768 1293.43 184.493 1292.45 185.535C1291.54 186.512 1289.98 187 1287.76 187H1256.12C1253.91 187 1252.31 186.512 1251.34 185.535C1250.42 184.493 1249.97 182.768 1249.97 180.359C1249.97 177.951 1250.42 176.258 1251.34 175.281C1252.31 174.24 1253.91 173.719 1256.12 173.719H1265.11V127.918C1265.11 122.124 1263.77 117.534 1261.1 114.148C1258.43 110.763 1254.49 109.07 1249.29 109.07C1243.75 109.07 1238.58 110.665 1233.76 113.855C1229.01 117.046 1225.2 121.44 1222.33 127.039C1219.47 132.638 1218.04 138.888 1218.04 145.789V173.719H1227.02C1229.23 173.719 1230.8 174.24 1231.71 175.281C1232.68 176.258 1233.17 177.951 1233.17 180.359C1233.17 182.768 1232.68 184.493 1231.71 185.535C1230.8 186.512 1229.23 187 1227.02 187H1195.38C1193.17 187 1191.57 186.512 1190.59 185.535C1189.68 184.493 1189.23 182.768 1189.23 180.359C1189.23 177.951 1189.68 176.258 1190.59 175.281C1191.57 174.24 1193.17 173.719 1195.38 173.719H1203.39V72.1562H1194.4C1192.19 72.1562 1190.59 71.668 1189.62 70.6914C1188.71 69.6497 1188.25 67.9245 1188.25 65.5156C1188.25 63.1068 1188.71 61.4141 1189.62 60.4375C1190.59 59.3958 1192.19 58.875 1194.4 58.875H1211.88ZM1392.06 96.7656C1394.27 96.7656 1395.83 97.2865 1396.75 98.3281C1397.72 99.3047 1398.21 100.997 1398.21 103.406V173.719H1406.22C1408.43 173.719 1409.99 174.24 1410.91 175.281C1411.88 176.258 1412.37 177.951 1412.37 180.359C1412.37 182.768 1411.88 184.493 1410.91 185.535C1409.99 186.512 1408.43 187 1406.22 187H1390.69C1388.48 187 1386.88 186.512 1385.91 185.535C1384.99 184.559 1384.54 182.866 1384.54 180.457V168.641C1380.24 175.281 1375.2 180.359 1369.4 183.875C1363.67 187.391 1357.49 189.148 1350.85 189.148C1344.92 189.148 1339.78 187.879 1335.42 185.34C1331.06 182.736 1327.7 179.025 1325.36 174.207C1323.02 169.389 1321.84 163.758 1321.84 157.312V110.047H1313.84C1311.62 110.047 1310.03 109.559 1309.05 108.582C1308.14 107.54 1307.68 105.815 1307.68 103.406C1307.68 100.997 1308.14 99.3047 1309.05 98.3281C1310.03 97.2865 1311.62 96.7656 1313.84 96.7656H1330.34C1332.55 96.7656 1334.12 97.2865 1335.03 98.3281C1336 99.3047 1336.49 100.997 1336.49 103.406V155.848C1336.49 161.642 1337.83 166.232 1340.5 169.617C1343.17 173.003 1347.1 174.695 1352.31 174.695C1357.85 174.695 1362.99 173.1 1367.74 169.91C1372.56 166.72 1376.4 162.326 1379.27 156.727C1382.13 151.128 1383.56 144.878 1383.56 137.977V110.047H1369.7C1367.48 110.047 1365.89 109.559 1364.91 108.582C1364 107.54 1363.54 105.815 1363.54 103.406C1363.54 100.997 1364 99.3047 1364.91 98.3281C1365.89 97.2865 1367.48 96.7656 1369.7 96.7656H1392.06ZM1491.57 94.6172C1497.49 94.6172 1502.64 95.9193 1507 98.5234C1511.36 101.062 1514.71 104.741 1517.06 109.559C1519.4 114.376 1520.57 120.008 1520.57 126.453V173.719H1528.58C1530.8 173.719 1532.36 174.24 1533.27 175.281C1534.25 176.258 1534.73 177.951 1534.73 180.359C1534.73 182.768 1534.25 184.493 1533.27 185.535C1532.36 186.512 1530.8 187 1528.58 187H1496.94C1494.73 187 1493.13 186.512 1492.16 185.535C1491.24 184.493 1490.79 182.768 1490.79 180.359C1490.79 177.951 1491.24 176.258 1492.16 175.281C1493.13 174.24 1494.73 173.719 1496.94 173.719H1505.93V127.918C1505.93 122.124 1504.59 117.534 1501.92 114.148C1499.25 110.763 1495.31 109.07 1490.11 109.07C1484.57 109.07 1479.4 110.665 1474.58 113.855C1469.83 117.046 1466.02 121.44 1463.15 127.039C1460.29 132.638 1458.86 138.888 1458.86 145.789V173.719H1467.84C1470.05 173.719 1471.62 174.24 1472.53 175.281C1473.5 176.258 1473.99 177.951 1473.99 180.359C1473.99 182.768 1473.5 184.493 1472.53 185.535C1471.62 186.512 1470.05 187 1467.84 187H1436.2C1433.99 187 1432.39 186.512 1431.41 185.535C1430.5 184.493 1430.05 182.768 1430.05 180.359C1430.05 177.951 1430.5 176.258 1431.41 175.281C1432.39 174.24 1433.99 173.719 1436.2 173.719H1444.21V110.047H1434.25C1432.03 110.047 1430.44 109.559 1429.46 108.582C1428.55 107.54 1428.09 105.815 1428.09 103.406C1428.09 100.997 1428.55 99.3047 1429.46 98.3281C1430.44 97.2865 1432.03 96.7656 1434.25 96.7656H1451.73C1453.94 96.7656 1455.5 97.2865 1456.41 98.3281C1457.39 99.3047 1457.88 100.997 1457.88 103.406V115.125C1462.18 108.484 1467.19 103.406 1472.92 99.8906C1478.71 96.375 1484.93 94.6172 1491.57 94.6172ZM1585.22 68.9336C1587.89 68.9336 1589.78 69.4219 1590.89 70.3984C1591.99 71.375 1592.55 73.0026 1592.55 75.2812V104.578H1632.68C1634.9 104.578 1636.46 105.099 1637.37 106.141C1638.35 107.117 1638.84 108.81 1638.84 111.219C1638.84 113.628 1638.35 115.353 1637.37 116.395C1636.46 117.371 1634.9 117.859 1632.68 117.859H1592.55V153.406C1592.55 160.828 1593.82 166.264 1596.36 169.715C1598.96 173.165 1603.45 174.891 1609.83 174.891C1614.19 174.891 1618.78 174.012 1623.6 172.254C1628.42 170.496 1633.07 168.152 1637.57 165.223C1638.48 164.572 1639.49 164.246 1640.59 164.246C1642.81 164.246 1644.7 165.743 1646.26 168.738C1647.1 170.431 1647.53 171.896 1647.53 173.133C1647.53 175.216 1646.45 176.909 1644.3 178.211C1639.23 181.401 1633.56 184.038 1627.31 186.121C1621.06 188.139 1615.24 189.148 1609.83 189.148C1598.76 189.148 1590.66 186.284 1585.52 180.555C1580.44 174.76 1577.9 166.134 1577.9 154.676V117.859H1558.07C1555.86 117.859 1554.27 117.371 1553.29 116.395C1552.38 115.353 1551.92 113.628 1551.92 111.219C1551.92 108.81 1552.38 107.117 1553.29 106.141C1554.27 105.099 1555.86 104.578 1558.07 104.578H1577.9V75.2812C1577.9 73.0026 1578.45 71.375 1579.56 70.3984C1580.67 69.4219 1582.55 68.9336 1585.22 68.9336Z" fill="#1F3147"/>
</svg>
