<svg width="85" height="125" viewBox="0 0 85 125" fill="none" xmlns="http://www.w3.org/2000/svg">
<path d="M0 90.2417C0 86.4079 3.10789 83.3 6.94167 83.3H21.675C33.1763 83.3 42.5 92.6237 42.5 104.125V104.125C42.5 115.626 32.966 124.95 21.4646 124.95V124.95C9.72859 124.95 0 115.436 0 103.7V90.2417Z" fill="#FFD02F"/>
<path d="M0 48.5916C0 44.7578 3.10789 41.6499 6.94167 41.6499H7.79166C26.9605 41.6499 42.5 57.1893 42.5 76.3582V76.3582C42.5 80.192 39.3921 83.2999 35.5583 83.2999H34.7083C15.5395 83.2999 0 67.7605 0 48.5916V48.5916Z" fill="#78C043"/>
<path d="M0 34.7083C0 15.5394 15.5395 0 34.7083 0H35.5583C39.3921 0 42.5 3.10789 42.5 6.94167V6.94167C42.5 26.1106 26.9605 41.65 7.79166 41.65H6.94167C3.10789 41.65 0 38.5421 0 34.7083V34.7083Z" fill="#ADC8E9"/>
<path d="M42.5 6.94167C42.5 3.10789 45.6079 0 49.4417 0H50.2917C69.4605 0 85 15.5394 85 34.7083V34.7083C85 38.5421 81.8921 41.65 78.0583 41.65H77.2083C58.0395 41.65 42.5 26.1106 42.5 6.94167V6.94167Z" fill="#3476D8"/>
<path d="M42.5 76.3582C42.5 57.1893 58.0395 41.6499 77.2083 41.6499H78.0583C81.8921 41.6499 85 44.7578 85 48.5916V48.5916C85 67.7605 69.4605 83.2999 50.2917 83.2999H49.4417C45.6079 83.2999 42.5 80.192 42.5 76.3582V76.3582Z" fill="#003868"/>
</svg>
